# xmcd
#
# Track frame offsets:
# 150
# 13175
# 24531
# 39327
# 54560
# 64876
# 77008
# 89395
# 102177
# 113274
# 132492
# 147408
# 163260
# 174113
# 186713
# 200320
# 215543
#
# Disc length: 3031 seconds
#
#
# Revision: 0
# Processed by: cddbd v1.5.1PL0 Copyright (c) Steve Scherf et al.
# Submitted via: FreeRIP 2.90 
#
DISCID=ec0bd511
DTITLE=Aretha Franklin - 30 Greatest Hits [CD1)
DYEAR=1986
DGENRE=
TTITLE0=aretha franklin - i never loved a man (the way i love you)
TTITLE1=aretha franklin - respect
TTITLE2=aretha franklin - do right woman, do right man
TTITLE3=aretha franklin - dr feelgood
TTITLE4=aretha franklin - save me
TTITLE5=aretha franklin - baby i love you
TTITLE6=aretha franklin - (you make me feel) a natural woman
TTITLE7=aretha franklin - chain of fools
TTITLE8=aretha franklin - since you've been gone
TTITLE9=aretha franklin - ain't no way
TTITLE10=aretha franklin - think
TTITLE11=aretha franklin - i say a little prayer
TTITLE12=aretha franklin - the house that jack built
TTITLE13=aretha franklin - see saw
TTITLE14=aretha franklin - the weight
TTITLE15=aretha franklin - share tour love with me
TTITLE16=aretha franklin - eleanor rigby
EXTD=
EXTT0=
EXTT1=
EXTT2=
EXTT3=
EXTT4=
EXTT5=
EXTT6=
EXTT7=
EXTT8=
EXTT9=
EXTT10=
EXTT11=
EXTT12=
EXTT13=
EXTT14=
EXTT15=
EXTT16=
PLAYORDER=
